<svg height='300px' width='300px'  fill="#000000" xmlns="http://www.w3.org/2000/svg" xmlns:xlink="http://www.w3.org/1999/xlink" version="1.1" x="0px" y="0px" viewBox="0 0 100 100" enable-background="new 0 0 100 100" xml:space="preserve"><path d="M50.125,0.521c-16.84,0-30.541,13.653-30.541,30.437c0,10.427,9.755,33.101,12.746,39.803  c3.251,7.286,6.635,14.135,9.527,19.283c4.931,8.78,6.599,9.477,8.268,9.477c1.611,0,2.85-0.459,7.837-9.493  c2.89-5.234,6.373-12.253,9.559-19.249c3.951-8.685,13.144-29.947,13.144-39.821C80.665,14.173,66.965,0.521,50.125,0.521z   M50.125,77.079c-3.585,0-6.493-2.897-6.493-6.47c0-3.575,2.908-6.472,6.493-6.472c3.586,0,6.492,2.896,6.492,6.472  C56.617,74.182,53.712,77.079,50.125,77.079z M50.125,58.64c-3.355,0-13.662-18.459-13.662-26.528  c0-8.071,5.564-14.613,13.662-14.613c8.098,0,13.662,6.542,13.662,14.613C63.787,40.18,53.626,58.64,50.125,58.64z"></path></svg>