<svg width="100" height="32" viewBox="0 0 100 32" fill="none" xmlns="http://www.w3.org/2000/svg">
<path d="M95 0H31V32H95C97.7614 32 100 29.7614 100 27V5C100 2.23858 97.7614 0 95 0Z" fill="#0F1418"/>
<path d="M5 0.5H30.5V31.5H5C2.51472 31.5 0.5 29.4853 0.5 27V5C0.5 2.51472 2.51472 0.5 5 0.5Z" fill="white" stroke="#171C20"/>
<path d="M25.3132 6.19792C24.9933 6.97057 24.5875 7.7043 24.0987 8.37813C21.96 6.21589 19.057 5 16.0326 5C9.7763 5 4.62793 10.2109 4.62793 16.5449C4.62793 19.7044 5.90762 22.7292 8.17077 24.9094L8.59141 25.2867C10.6472 27.0387 13.251 28.003 15.9378 28.003C21.8859 28.003 26.8862 23.2892 27.3098 17.2816C27.6208 14.3408 26.7677 10.6212 25.3132 6.19792ZM9.79111 24.9753C9.60745 25.2059 9.32604 25.3406 9.03278 25.3406C8.49661 25.3406 8.0582 24.8944 8.0582 24.3523C8.0582 23.8103 8.49958 23.3641 9.03278 23.3641C9.25495 23.3641 9.47415 23.4419 9.64596 23.5857C10.0636 23.9271 10.1288 24.553 9.79111 24.9753ZM25.2659 21.5193C22.4517 25.3137 16.4413 24.0349 12.5875 24.2176C12.5875 24.2176 11.9032 24.2595 11.216 24.3733C11.216 24.3733 11.4737 24.2625 11.8084 24.1337C14.5129 23.1814 15.7926 22.9957 17.4367 22.1422C20.5322 20.549 23.5922 17.063 24.2291 13.4363C23.0501 16.9253 19.4776 19.923 16.2221 21.1419C13.9916 21.9745 9.96292 22.7831 9.96292 22.7831L9.8 22.6962C7.05697 21.3456 6.97402 15.335 11.9595 13.3944C14.1426 12.5439 16.231 13.0111 18.589 12.4421C21.1069 11.8371 24.0187 9.92643 25.2036 7.43477C26.5307 11.4208 28.1274 17.662 25.2659 21.5193V21.5193Z" fill="#77BC1F"/>
<path d="M42.5793 21.5972V19.2534C43.0041 19.6099 43.4655 19.8784 43.9636 20.0591C44.4616 20.2349 44.9646 20.3228 45.4724 20.3228C45.7702 20.3228 46.029 20.2959 46.2487 20.2422C46.4733 20.1885 46.6589 20.1152 46.8054 20.0225C46.9567 19.9248 47.069 19.8125 47.1423 19.6855C47.2155 19.5537 47.2521 19.4121 47.2521 19.2607C47.2521 19.0557 47.1936 18.8726 47.0764 18.7114C46.9592 18.5503 46.798 18.4014 46.593 18.2646C46.3928 18.1279 46.1535 17.9961 45.8752 17.8691C45.5969 17.7422 45.2966 17.6128 44.9743 17.481C44.154 17.1392 43.5412 16.7217 43.1359 16.2285C42.7355 15.7354 42.5354 15.1396 42.5354 14.4414C42.5354 13.8945 42.6452 13.4258 42.8649 13.0352C43.0847 12.6396 43.3825 12.3149 43.7585 12.061C44.1394 11.8071 44.5788 11.6216 45.0769 11.5044C45.5749 11.3823 46.1022 11.3213 46.6589 11.3213C47.2058 11.3213 47.6892 11.3555 48.1091 11.4238C48.5339 11.4873 48.9245 11.5874 49.281 11.7241V13.9141C49.1052 13.792 48.9123 13.6846 48.7023 13.5918C48.4973 13.499 48.2849 13.4233 48.0651 13.3647C47.8454 13.3013 47.6257 13.2549 47.406 13.2256C47.1911 13.1963 46.986 13.1816 46.7907 13.1816C46.5222 13.1816 46.278 13.2085 46.0583 13.2622C45.8386 13.311 45.653 13.3818 45.5017 13.4746C45.3503 13.5674 45.2331 13.6797 45.1501 13.8115C45.0671 13.9385 45.0256 14.0825 45.0256 14.2437C45.0256 14.4194 45.072 14.5781 45.1647 14.7197C45.2575 14.8564 45.3894 14.9883 45.5603 15.1152C45.7312 15.2373 45.9387 15.3594 46.1828 15.4814C46.427 15.5986 46.7028 15.7207 47.0104 15.8477C47.4304 16.0234 47.8063 16.2114 48.1384 16.4116C48.4753 16.6069 48.7634 16.8291 49.0026 17.0781C49.2419 17.3271 49.425 17.6128 49.552 17.9351C49.6789 18.2524 49.7424 18.6235 49.7424 19.0483C49.7424 19.6343 49.6301 20.1274 49.4055 20.5278C49.1857 20.9233 48.8854 21.2456 48.5046 21.4946C48.1237 21.7388 47.6794 21.9146 47.1716 22.022C46.6687 22.1294 46.1364 22.1831 45.5749 22.1831C44.9987 22.1831 44.4494 22.1343 43.927 22.0366C43.4094 21.939 42.9602 21.7925 42.5793 21.5972ZM54.0313 21.1284H54.002V25.4497H51.6875V14.5H54.002V15.6279H54.0313C54.6026 14.7539 55.4058 14.3169 56.4409 14.3169C57.4126 14.3169 58.1621 14.6514 58.6895 15.3203C59.2217 15.9844 59.4878 16.8901 59.4878 18.0376C59.4878 19.2876 59.1778 20.291 58.5576 21.0479C57.9424 21.8047 57.1221 22.1831 56.0967 22.1831C55.1934 22.1831 54.5049 21.8315 54.0313 21.1284ZM53.9654 18.0522V18.6528C53.9654 19.1704 54.1021 19.5928 54.3755 19.9199C54.6489 20.2471 55.0078 20.4106 55.4522 20.4106C55.9795 20.4106 56.3872 20.208 56.6753 19.8027C56.9683 19.3926 57.1148 18.814 57.1148 18.0669C57.1148 16.7485 56.6021 16.0894 55.5767 16.0894C55.103 16.0894 54.7149 16.27 54.4121 16.6313C54.1143 16.9878 53.9654 17.4614 53.9654 18.0522ZM66.0619 16.5874C65.7835 16.436 65.4588 16.3604 65.0877 16.3604C64.5848 16.3604 64.1917 16.5459 63.9085 16.917C63.6253 17.2832 63.4837 17.7837 63.4837 18.4185V22H61.1693V14.5H63.4837V15.8916H63.513C63.8792 14.876 64.5384 14.3682 65.4906 14.3682C65.7347 14.3682 65.9251 14.3975 66.0619 14.4561V16.5874ZM68.5563 13.3135C68.1657 13.3135 67.8459 13.1987 67.5968 12.9692C67.3478 12.7349 67.2233 12.4492 67.2233 12.1123C67.2233 11.7656 67.3478 11.4824 67.5968 11.2627C67.8459 11.043 68.1657 10.9331 68.5563 10.9331C68.9518 10.9331 69.2716 11.043 69.5158 11.2627C69.7648 11.4824 69.8893 11.7656 69.8893 12.1123C69.8893 12.4639 69.7648 12.752 69.5158 12.9766C69.2716 13.2012 68.9518 13.3135 68.5563 13.3135ZM69.6989 22H67.3844V14.5H69.6989V22ZM79.0708 22H76.7636V17.8325C76.7636 16.6704 76.3486 16.0894 75.5185 16.0894C75.1181 16.0894 74.7886 16.2432 74.5298 16.5508C74.271 16.8584 74.1416 17.249 74.1416 17.7227V22H71.8271V14.5H74.1416V15.6865H74.1709C74.7226 14.7734 75.5259 14.3169 76.5805 14.3169C78.2407 14.3169 79.0708 15.3472 79.0708 17.4077V22ZM88.4427 21.1431C88.4427 22.5347 88.0398 23.6113 87.2342 24.373C86.4285 25.1396 85.2615 25.5229 83.7332 25.5229C82.7225 25.5229 81.9217 25.3789 81.3309 25.0908V23.1426C82.1023 23.5918 82.8812 23.8164 83.6673 23.8164C84.4485 23.8164 85.054 23.6089 85.4837 23.1938C85.9134 22.7837 86.1282 22.2246 86.1282 21.5166V20.9233H86.0989C85.5716 21.7632 84.7928 22.1831 83.7625 22.1831C82.8055 22.1831 82.0462 21.8462 81.4847 21.1724C80.9231 20.4985 80.6424 19.5952 80.6424 18.4624C80.6424 17.1929 80.9549 16.1846 81.5799 15.4375C82.2049 14.6904 83.0276 14.3169 84.0481 14.3169C84.9612 14.3169 85.6448 14.6685 86.0989 15.3716H86.1282V14.5H88.4427V21.1431ZM86.1575 18.3965V17.8032C86.1575 17.3296 86.0159 16.9268 85.7327 16.5947C85.4544 16.2578 85.0906 16.0894 84.6414 16.0894C84.1287 16.0894 83.7259 16.2896 83.4329 16.6899C83.1399 17.0903 82.9935 17.6543 82.9935 18.3818C82.9935 19.0068 83.1326 19.5024 83.4109 19.8687C83.6893 20.23 84.0701 20.4106 84.5535 20.4106C85.032 20.4106 85.4178 20.2275 85.7107 19.8613C86.0086 19.4902 86.1575 19.002 86.1575 18.3965Z" fill="white"/>
<path d="M95 0H5C2.23858 0 0 2.23858 0 5V27C0 29.7614 2.23858 32 5 32H95C97.7614 32 100 29.7614 100 27V5C100 2.23858 97.7614 0 95 0Z" fill="url(#paint0_linear)"/>
<defs>
<linearGradient id="paint0_linear" x1="0" y1="0" x2="0" y2="32" gradientUnits="userSpaceOnUse">
<stop stop-color="#BBBBBB" stop-opacity="0.1"/>
<stop offset="1" stop-opacity="0.1"/>
</linearGradient>
</defs>
</svg>
